<svg width="512" height="512" viewBox="0 0 512 512" fill="none" xmlns="http://www.w3.org/2000/svg">
<path d="M128.196 334.2C96.9857 403.309 121.508 456.814 141.572 465.731C161.636 474.649 176.456 465.729 176.456 447.895C176.456 430.06 168.324 423.373 163.866 409.997C157.44 390.715 154.466 381.015 157.178 340.888C159.891 300.761 190.618 278.467 197.306 271.779C203.995 265.091 196.893 264.506 192.848 265.091C179.907 266.96 151.975 281.547 128.196 334.2Z" fill="#1F0063" stroke="#651FFF"/>
<path d="M184.418 387.624C191.944 463.08 239.933 497.155 261.768 494.845C283.603 492.536 291.977 477.402 283.06 461.957C274.142 446.512 263.757 444.786 253.208 435.431C238.002 421.946 230.576 415.032 212.862 378.925C195.147 342.818 210.61 308.147 213.059 299.01C215.507 289.874 209.064 292.919 205.854 295.448C195.581 303.537 178.685 330.136 184.418 387.624Z" fill="#1F0063" stroke="#651FFF"/>
<path d="M259.821 405.782C304.066 467.365 362.663 472.88 380.418 459.963C398.173 447.046 397.858 429.753 382.413 420.835C366.968 411.918 357.111 415.617 343.298 412.789C323.386 408.713 313.498 406.439 280.104 384.026C246.709 361.614 242.765 323.856 240.317 314.72C237.869 305.583 233.812 311.442 232.296 315.237C227.444 327.379 226.111 358.862 259.821 405.782Z" fill="#1F0063" stroke="#651FFF"/>
<path d="M334.2 383.803C403.309 415.014 456.814 390.491 465.731 370.427C474.649 350.363 465.73 335.544 447.895 335.544C430.06 335.544 423.373 343.676 409.997 348.133C390.715 354.559 381.015 357.534 340.888 354.821C300.761 352.109 278.467 321.382 271.779 314.693C265.091 308.005 264.506 315.107 265.091 319.152C266.96 332.093 281.547 360.024 334.2 383.803Z" fill="#1F0063" stroke="#651FFF"/>
<path d="M387.624 327.582C463.08 320.056 497.155 272.067 494.846 250.232C492.536 228.397 477.403 220.023 461.957 228.94C446.512 237.858 444.787 248.243 435.432 258.792C421.946 273.998 415.032 281.424 378.925 299.138C342.818 316.853 308.147 301.39 299.011 298.941C289.875 296.493 292.92 302.936 295.448 306.146C303.537 316.419 330.136 333.315 387.624 327.582Z" fill="#1F0063" stroke="#651FFF"/>
<path d="M405.781 252.179C467.365 207.934 472.88 149.337 459.963 131.582C447.046 113.827 429.752 114.142 420.835 129.587C411.918 145.032 415.616 154.889 412.789 168.702C408.713 188.614 406.439 198.502 384.026 231.896C361.614 265.291 323.856 269.235 314.72 271.683C305.583 274.131 311.442 278.188 315.237 279.704C327.379 284.556 358.862 285.889 405.781 252.179Z" fill="#1F0063" stroke="#651FFF"/>
<path d="M383.804 177.8C415.014 108.691 390.492 55.1864 370.428 46.2689C350.364 37.3513 335.544 46.2705 335.544 64.1052C335.544 81.9399 343.676 88.6267 348.134 102.003C354.56 121.285 357.534 130.985 354.822 171.112C352.109 211.239 321.382 233.533 314.694 240.221C308.005 246.909 315.107 247.494 319.152 246.909C332.093 245.04 360.025 230.453 383.804 177.8Z" fill="#1F0063" stroke="#651FFF"/>
<path d="M327.582 124.376C320.056 48.9197 272.067 14.845 250.232 17.1542C228.397 19.4634 220.023 34.5972 228.94 50.0425C237.858 65.4878 248.243 67.213 258.792 76.5681C273.998 90.0537 281.424 96.9673 299.138 133.075C316.853 169.182 301.39 203.853 298.941 212.989C296.493 222.125 302.936 219.08 306.146 216.552C316.419 208.462 333.315 181.864 327.582 124.376Z" fill="#1F0063" stroke="#651FFF"/>
<path d="M252.179 106.219C207.934 44.6348 149.337 39.1199 131.582 52.0371C113.827 64.9542 114.142 82.2476 129.587 91.165C145.032 100.082 154.889 96.3837 168.702 99.2111C188.614 103.287 198.502 105.561 231.896 127.974C265.291 150.386 269.235 188.144 271.683 197.28C274.131 206.417 278.188 200.558 279.704 196.763C284.556 184.621 285.889 153.138 252.179 106.219Z" fill="#1F0063" stroke="#651FFF"/>
<path d="M177.8 128.196C108.691 96.9857 55.1866 121.508 46.2691 141.572C37.3516 161.636 46.2708 176.456 64.1054 176.456C81.9401 176.456 88.6269 168.324 102.003 163.866C121.285 157.44 130.985 154.466 171.112 157.178C211.239 159.891 233.534 190.618 240.222 197.306C246.91 203.995 247.494 196.893 246.91 192.848C245.04 179.907 230.454 151.975 177.8 128.196Z" fill="#1F0063" stroke="#651FFF"/>
<path d="M124.376 184.418C48.92 191.944 14.8452 239.933 17.1544 261.768C19.4636 283.603 34.5975 291.977 50.0427 283.06C65.488 274.142 67.2133 263.757 76.5683 253.208C90.0539 238.002 96.9675 230.576 133.075 212.862C169.182 195.147 203.853 210.61 212.989 213.059C222.125 215.507 219.08 209.064 216.552 205.854C208.463 195.581 181.864 178.685 124.376 184.418Z" fill="#1F0063" stroke="#651FFF"/>
<path d="M106.219 259.821C44.6348 304.066 39.1199 362.663 52.0371 380.418C64.9542 398.173 82.2476 397.858 91.165 382.413C100.082 366.968 96.3837 357.111 99.2111 343.298C103.287 323.386 105.561 313.498 127.974 280.104C150.386 246.709 188.144 242.765 197.28 240.317C206.417 237.869 200.558 233.812 196.763 232.296C184.621 227.444 153.138 226.111 106.219 259.821Z" fill="#1F0063" stroke="#651FFF"/>
</svg>
